<svg xmlns="http://www.w3.org/2000/svg" width="135" height="45" fill="none"><g fill="#745874" clip-path="url(#a)"><path d="m16.35 21.383-.014.001.001.004c.107.022.216.044.322.064l-.311-.071.001.002zm0 0-.014.001.001.004c.107.022.216.044.322.064l-.311-.071.001.002zm0 0-.014.001.001.004c.107.022.216.044.322.064l-.311-.071.001.002zm0 0-.014.001.001.004c.107.022.216.044.322.064l-.311-.071.001.002zm0 0-.014.001.001.004c.107.022.216.044.322.064l-.311-.071.001.002z"/><path d="M30.217 12.164c0 1.447-.154 2.853-.444 4.192a18.673 18.673 0 0 1-1.25 3.785 18.644 18.644 0 0 1-3.753 1.242c-1.35.294-2.765.452-4.224.452a19.89 19.89 0 0 1-3.878-.38l-.007-.001-.312-.071c.104-.022.207-.046.312-.072-.107.02-.215.043-.322.065.76-3.5 2.448-6.552 4.727-8.753 2.198-2.255 5.227-3.92 8.702-4.676a19.746 19.746 0 0 1 .447 4.215l.002.002z"/><path d="M16.66 21.454c-.107-.02-.216-.043-.323-.065l-.001-.001.013-.004c.104.022.207.046.312.071l-.002-.001zM29.766 7.946a19.857 19.857 0 0 0-4.207-.446c-2.89 0-5.608.615-7.978 1.694-1.08 2.369-1.693 5.086-1.693 7.977 0 1.453.156 2.865.448 4.21l.001-.002c.761-3.5 2.45-6.551 4.727-8.752 2.198-2.255 5.227-3.92 8.702-4.676l-.002-.004.002-.001zm2.23.014-.002-.013h-.002l-.002.002-.064.322.071-.312-.001.002zm0 0-.002-.013h-.002l-.002.002-.064.322.071-.312-.001.002zm0 0-.002-.013h-.002l-.002.002-.064.322.071-.312-.001.002zm0 0-.002-.013h-.002l-.002.002-.064.322.071-.312-.001.002zm0 0-.002-.013h-.002l-.002.002-.064.322.071-.312-.001.002zm9.224 13.875c-1.45 0-2.854-.154-4.194-.444a18.797 18.797 0 0 1-3.787-1.25 18.623 18.623 0 0 1-1.242-3.755 19.812 19.812 0 0 1-.452-4.225c0-1.335.132-2.635.38-3.88l.001-.007.071-.311c.022.103.046.206.071.311-.02-.106-.042-.215-.064-.322 3.502.761 6.553 2.45 8.756 4.73 2.255 2.198 3.922 5.23 4.678 8.706h-.002s-.014.001-.019.003a19.72 19.72 0 0 1-4.196.444h-.002z"/><path d="M31.926 8.273c.02-.107.043-.216.065-.322l.001-.002h.002s0 .008.002.014a9.858 9.858 0 0 1-.072.311l.002-.001zM45.44 21.384c.29-1.345.445-2.755.445-4.21 0-2.89-.615-5.61-1.694-7.98C41.82 8.115 39.1 7.5 36.21 7.5a19.798 19.798 0 0 0-4.21.451c3.502.76 6.553 2.45 8.756 4.73 2.255 2.197 3.922 5.23 4.677 8.705h.002l.002-.002h.002zm-.02 2.233.014-.001-.001-.004a20.129 20.129 0 0 0-.322-.064l.312.071-.002-.002zm0 0 .014-.001-.001-.004a20.129 20.129 0 0 0-.322-.064l.312.071-.002-.002zm0 0 .014-.001-.001-.004a20.129 20.129 0 0 0-.322-.064l.312.071-.002-.002zm0 0 .014-.001-.001-.004a20.129 20.129 0 0 0-.322-.064l.312.071-.002-.002zm0 0 .014-.001-.001-.004a20.129 20.129 0 0 0-.322-.064l.312.071-.002-.002z"/><path d="M31.553 32.836c0-1.447.154-2.853.444-4.192a18.684 18.684 0 0 1 1.25-3.785A18.644 18.644 0 0 1 37 23.617a19.797 19.797 0 0 1 4.224-.452c1.335 0 2.635.132 3.878.38l.007.001.312.071a9.306 9.306 0 0 0-.312.072c.107-.02.215-.043.322-.065-.76 3.5-2.448 6.552-4.727 8.753-2.197 2.255-5.227 3.92-8.702 4.676 0 0-.001-.015-.003-.02a19.745 19.745 0 0 1-.444-4.196l-.002-.001z"/><path d="M45.11 23.546a21.546 21.546 0 0 1 .324.066l-.013.004a11.69 11.69 0 0 1-.312-.071l.002.001zM32.004 37.054c1.344.292 2.755.446 4.207.446 2.89 0 5.606-.615 7.976-1.694 1.08-2.37 1.695-5.086 1.695-7.977a19.89 19.89 0 0 0-.448-4.21l-.001.002c-.761 3.5-2.449 6.552-4.727 8.752-2.198 2.255-5.227 3.92-8.702 4.676l.002.004-.002.002zm-2.23-.014.002.013h.002l.002-.002.064-.322a75.09 75.09 0 0 0-.071.312l.001-.002zm0 0 .002.013h.002l.002-.002.064-.322a75.09 75.09 0 0 0-.071.312l.001-.002zm0 0 .002.013h.002l.002-.002.064-.322a75.09 75.09 0 0 0-.071.312l.001-.002zm0 0 .002.013h.002l.002-.002.064-.322a75.09 75.09 0 0 0-.071.312l.001-.002zm0 0 .002.013h.002l.002-.002.064-.322a75.09 75.09 0 0 0-.071.312l.001-.002zM20.55 23.167c1.45 0 2.854.154 4.194.443 1.335.29 2.604.714 3.787 1.25a18.625 18.625 0 0 1 1.242 3.755c.294 1.35.452 2.767.452 4.226 0 1.335-.132 2.634-.38 3.88l-.001.006-.071.312a11.602 11.602 0 0 0-.071-.312c.02.107.042.216.064.322-3.502-.76-6.553-2.45-8.756-4.73-2.255-2.198-3.922-5.23-4.678-8.705h.002l.019-.004a19.763 19.763 0 0 1 4.196-.443h.002z"/><path d="M29.844 36.73c-.02.106-.043.214-.065.321l-.001.002h-.002s0-.009-.002-.014c.022-.103.046-.206.072-.312l-.002.002zM16.33 23.617a19.877 19.877 0 0 0-.445 4.21c0 2.89.615 5.61 1.694 7.98 2.37 1.08 5.09 1.695 7.98 1.695 1.454 0 2.867-.156 4.212-.45l-.002-.001c-3.502-.76-6.553-2.45-8.755-4.73-2.256-2.198-3.923-5.23-4.678-8.705h-.002l-.002.001h-.001z"/></g><path fill="#745874" d="M117.556 27.414v-6.098c0-.688-.17-1.224-.511-1.608-.341-.39-.802-.585-1.385-.585-.359 0-.681.083-.966.25a1.711 1.711 0 0 0-.679.726c-.167.316-.251.694-.251 1.134l-.994-.586c-.007-.694.148-1.304.464-1.831a3.397 3.397 0 0 1 1.302-1.246 3.739 3.739 0 0 1 1.821-.446c1.11 0 1.959.335 2.547 1.004.595.663.893 1.537.893 2.621v6.665h-2.241zm-12.074 0V17.375h1.98v3.114h.279v6.925h-2.259zm6.051 0v-6.07c0-.7-.17-1.245-.511-1.636-.341-.39-.805-.585-1.394-.585-.57 0-1.029.195-1.376.585-.341.39-.511.899-.511 1.525l-1.004-.67c0-.65.161-1.236.484-1.756a3.44 3.44 0 0 1 1.301-1.227 3.77 3.77 0 0 1 1.85-.456c.749 0 1.375.161 1.877.484.508.316.886.75 1.134 1.3.254.546.381 1.163.381 1.85v6.656h-2.231zm-13.904.287c-.744 0-1.357-.123-1.84-.371a3.25 3.25 0 0 1-1.153-.948 4.128 4.128 0 0 1-.632-1.227 6.564 6.564 0 0 1-.27-1.227c-.037-.39-.056-.707-.056-.948v-5.605h2.268v4.833c0 .31.022.66.065 1.05.044.385.143.757.298 1.116.16.353.396.644.706.874.316.229.74.343 1.274.343.285 0 .567-.046.845-.139.28-.093.53-.25.753-.474.23-.23.412-.542.549-.939.136-.396.204-.898.204-1.506l1.329.567c0 .856-.167 1.63-.502 2.324a3.945 3.945 0 0 1-1.459 1.664c-.644.409-1.438.613-2.38.613zm3.281-.288V24.3h-.27v-6.925h2.25v10.038h-1.98zM88.84 15.85v-2.053h2.24v2.054h-2.24zm0 11.563V17.375h2.24v10.038h-2.24zm-6.367.279c-1.24 0-2.246-.279-3.021-.836-.775-.558-1.246-1.342-1.413-2.352l2.287-.353c.117.496.378.886.78 1.171.403.285.911.428 1.525.428.539 0 .954-.106 1.245-.316.298-.217.446-.512.446-.883 0-.23-.055-.412-.167-.549-.105-.142-.34-.279-.706-.409-.366-.13-.927-.294-1.683-.492-.842-.223-1.512-.462-2.007-.716-.496-.26-.852-.567-1.07-.92-.216-.353-.325-.781-.325-1.283 0-.626.165-1.171.493-1.636.328-.465.787-.82 1.376-1.069.588-.254 1.282-.38 2.082-.38.78 0 1.471.12 2.073.362.607.241 1.096.585 1.468 1.031.372.447.601.97.688 1.571l-2.287.41a1.44 1.44 0 0 0-.585-1.014c-.329-.248-.769-.387-1.32-.418-.527-.031-.951.05-1.273.241-.323.186-.484.45-.484.79 0 .193.065.357.195.493.13.137.39.273.781.41.397.136.985.303 1.766.501.8.205 1.438.44 1.915.706.483.26.83.574 1.04.94.218.365.326.808.326 1.328 0 1.01-.368 1.804-1.106 2.38-.731.576-1.744.864-3.04.864zm-12.959 4.183 1.934-5.308.037 1.562-4.378-10.754h2.333l3.104 7.956h-.594l3.02-7.956h2.24l-5.595 14.5h-2.1zm-6.344-4.462V13.75h2.24v13.663h-2.24zm-11.06 0V14.03h8.644v2.1H54.35v3.3h5.289v2.1H54.35v3.784h6.404v2.1H52.11z"/><defs><clipPath id="a"><path fill="#fff" d="M15.885 7.5h30v30h-30z"/></clipPath></defs></svg>