<svg xmlns="http://www.w3.org/2000/svg" width="135" height="45" fill="none"><g clip-path="url(#a)"><path fill="#745874" d="m24.919 37.133 25.609-26.209L43.243 37.5H24.918"/><path fill="#916E91" d="M43.11 37.133 17.5 10.924 24.785 37.5h18.324"/><path fill="#A78BA7" d="M37.856 11.622a3.552 3.552 0 1 0-7.012-1.138 3.552 3.552 0 0 0 7.012 1.138z"/></g><path fill="#745874" d="M112.943 30.365c-1.393 0-2.526-.314-3.397-.941s-1.4-1.509-1.588-2.645l2.571-.397c.132.558.425.997.878 1.317.453.32 1.024.481 1.714.481.606 0 1.073-.118 1.4-.355.335-.244.502-.575.502-.993 0-.258-.063-.464-.188-.617-.118-.16-.383-.314-.794-.46-.411-.146-1.042-.33-1.892-.554-.948-.25-1.7-.519-2.258-.805-.557-.292-.958-.637-1.202-1.034s-.366-.878-.366-1.443c0-.704.185-1.317.554-1.84.37-.522.885-.922 1.547-1.201.662-.286 1.443-.429 2.341-.429.878 0 1.655.136 2.331.408.683.272 1.234.658 1.652 1.16.418.502.676 1.09.773 1.766l-2.571.46a1.618 1.618 0 0 0-.659-1.139c-.369-.279-.864-.435-1.484-.47-.592-.035-1.069.055-1.432.271-.362.21-.543.506-.543.889 0 .216.073.4.219.554.147.153.439.306.878.46a27.1 27.1 0 0 0 1.986.564c.899.23 1.617.495 2.153.794.544.293.934.645 1.171 1.056.244.411.366.91.366 1.495 0 1.136-.415 2.027-1.244 2.675-.822.649-1.962.973-3.418.973zm-13.211.01c-.836 0-1.526-.14-2.07-.418-.543-.279-.975-.634-1.295-1.066a4.644 4.644 0 0 1-.711-1.38 7.38 7.38 0 0 1-.303-1.38 11.722 11.722 0 0 1-.063-1.066v-6.302h2.55v5.435c0 .348.025.742.073 1.18.05.433.16.851.335 1.255.181.397.446.725.794.983.356.257.833.386 1.432.386.321 0 .638-.052.951-.156a2.15 2.15 0 0 0 .847-.534c.258-.257.463-.61.617-1.055.153-.446.23-1.01.23-1.693l1.494.637c0 .962-.188 1.833-.564 2.613a4.44 4.44 0 0 1-1.641 1.871c-.725.46-1.617.69-2.676.69zm3.69-.324v-3.502h-.303v-7.786h2.529V30.05h-2.226zM82.67 30.05l4.129-5.706-4.046-5.581h2.969l2.54 3.606 2.498-3.606h2.968l-4.045 5.581 4.15 5.707h-2.969l-2.602-3.731-2.624 3.73H82.67zm-5.78.315c-1.144 0-2.147-.248-3.011-.742a5.285 5.285 0 0 1-2.028-2.06c-.48-.877-.72-1.888-.72-3.03 0-1.234.236-2.304.71-3.21.474-.912 1.132-1.62 1.975-2.121.843-.502 1.819-.753 2.927-.753 1.17 0 2.163.275 2.979.826.822.543 1.432 1.313 1.829 2.31.397.996.547 2.17.45 3.522h-2.499v-.92c-.007-1.226-.223-2.121-.648-2.686-.425-.564-1.094-.846-2.007-.846-1.03 0-1.797.32-2.299.961-.502.634-.753 1.564-.753 2.79 0 1.144.251 2.029.753 2.656.502.627 1.233.94 2.195.94.62 0 1.153-.136 1.6-.407a2.72 2.72 0 0 0 1.044-1.202l2.488.752c-.432 1.018-1.101 1.809-2.007 2.373a5.49 5.49 0 0 1-2.979.847zM73 25.107v-1.902h7.766v1.902H73zm-16.247 4.944V15h2.55l6.982 10.609V15h2.55v15.051h-2.55l-6.982-10.609v10.609h-2.55z"/><defs><clipPath id="a"><path fill="#fff" d="M17.5 7.5h33.028v30H17.5z"/></clipPath></defs></svg>