<svg xmlns="http://www.w3.org/2000/svg" width="26" height="26" fill="none"><path fill="#532753" d="M23.833 13c0 5.983-4.85 10.833-10.833 10.833-5.983 0-10.833-4.85-10.833-10.833C2.167 7.017 7.017 2.167 13 2.167c5.983 0 10.833 4.85 10.833 10.833z" opacity=".5"/><path fill="#532753" d="M13 8.396c-.673 0-1.219.545-1.219 1.219a.812.812 0 1 1-1.625 0 2.844 2.844 0 1 1 4.884 1.981c-.1.103-.195.198-.286.289a7.316 7.316 0 0 0-.619.67c-.237.304-.322.528-.322.716v.812a.812.812 0 1 1-1.626 0v-.812c0-.71.33-1.285.666-1.715.248-.318.56-.63.812-.881l.21-.211A1.219 1.219 0 0 0 13 8.396zm0 10.021a1.083 1.083 0 1 0 0-2.167 1.083 1.083 0 0 0 0 2.167z"/></svg>