<svg xmlns="http://www.w3.org/2000/svg" width="135" height="45" fill="none"><g clip-path="url(#a)"><path fill="#745874" d="M19.636 9.073c6.57-3.685 15.958-.664 20.971 6.755 5.013 7.418 3.752 16.417-2.816 20.103 5.585-3.132 6.656-10.785 2.395-17.089C35.925 12.54 27.94 9.968 22.36 13.1c-5.585 3.135-6.655 10.784-2.398 17.092 4.261 6.303 12.24 8.874 17.825 5.739-6.571 3.689-15.959.663-20.971-6.755-5.01-7.415-3.748-16.417 2.82-20.103z"/><path fill="#A78BA7" d="M24.52 11.457c5.383-3.022 13.077-.543 17.18 5.533 4.107 6.077 3.073 13.451-2.31 16.473 4.576-2.567 5.453-8.838 1.962-14.001-3.488-5.163-10.03-7.272-14.602-4.705-4.577 2.567-5.453 8.838-1.962 14.005 3.49 5.166 10.029 7.271 14.606 4.7-5.384 3.022-13.077.547-17.18-5.533-4.108-6.076-3.074-13.454 2.31-16.472h-.004z"/><path fill="#745874" d="M32.081 11.215c5.706.36 10.932 5.317 11.669 11.074.733 5.757-3.297 10.132-9.003 9.776 4.852.305 8.277-3.414 7.654-8.309-.628-4.896-5.065-9.109-9.916-9.413-4.852-.305-8.28 3.414-7.653 8.31.627 4.895 5.068 9.108 9.915 9.413-5.706-.36-10.927-5.318-11.664-11.075-.737-5.757 3.293-10.132 9.002-9.776h-.004z"/><path fill="#916E91" d="M38.07 13.543c4.514 2.71 6.645 8.222 4.763 12.307-1.885 4.085-7.07 5.2-11.584 2.49 3.84 2.303 8.247 1.357 9.846-2.116 1.603-3.473-.213-8.156-4.048-10.462-3.84-2.303-8.247-1.357-9.846 2.116-1.603 3.472.209 8.155 4.048 10.458-4.514-2.71-6.644-8.221-4.76-12.306 1.885-4.086 7.07-5.2 11.585-2.49l-.004.003z"/></g><path fill="#745874" d="M115.338 31.508c-.813 0-1.5-.152-2.063-.458-.563-.313-.99-.726-1.282-1.24a3.454 3.454 0 0 1-.427-1.698c0-.542.09-1.028.271-1.46.181-.437.459-.812.834-1.125.375-.319.861-.58 1.458-.78.452-.147.98-.279 1.584-.397a37.013 37.013 0 0 1 1.98-.323c.715-.104 1.462-.215 2.24-.333l-.896.51c.007-.778-.167-1.35-.521-1.719-.354-.368-.952-.552-1.792-.552-.507 0-.997.118-1.469.354-.473.236-.803.643-.99 1.22l-2.292-.72a4.254 4.254 0 0 1 1.583-2.292c.785-.577 1.841-.865 3.168-.865 1 0 1.879.163 2.636.49a3.27 3.27 0 0 1 1.698 1.604c.202.396.323.803.365 1.22.042.41.062.857.062 1.344v6.908h-2.198v-2.438l.365.396c-.507.812-1.101 1.41-1.782 1.792-.674.375-1.518.562-2.532.562zm.5-2c.57 0 1.056-.101 1.459-.302a2.84 2.84 0 0 0 .958-.74c.244-.292.407-.566.49-.823a3.13 3.13 0 0 0 .219-1.094c.021-.417.031-.754.031-1.011l.771.23c-.757.117-1.406.221-1.948.312-.542.09-1.007.177-1.396.26a8.929 8.929 0 0 0-1.032.26 3.201 3.201 0 0 0-.74.365 1.631 1.631 0 0 0-.469.48c-.104.18-.156.392-.156.635 0 .278.07.525.209.74.138.209.34.375.604.5.271.125.604.188 1 .188zm-8.908 1.688v-5.418c0-.355-.024-.747-.073-1.178a4.042 4.042 0 0 0-.344-1.24 2.34 2.34 0 0 0-.792-.99c-.347-.257-.819-.385-1.417-.385a2.99 2.99 0 0 0-.948.156 2.18 2.18 0 0 0-.854.542c-.25.25-.452.598-.604 1.042-.153.438-.23 1-.23 1.688l-1.49-.636c0-.958.184-1.826.553-2.605a4.427 4.427 0 0 1 1.646-1.854c.722-.466 1.611-.698 2.667-.698.834 0 1.521.139 2.063.416.542.278.973.633 1.292 1.063.32.431.556.89.709 1.376.153.486.25.948.292 1.385a9.9 9.9 0 0 1 .072 1.053v6.283h-2.542zm-7.804 0V19.943h2.24v3.49h.302v7.763h-2.542zm-5.611-12.962v-2.303h2.51v2.303h-2.51zm0 12.962V19.943h2.51v11.253h-2.51zm-5.438 0V24.36c0-.771-.19-1.372-.573-1.803-.382-.438-.9-.656-1.552-.656a2.1 2.1 0 0 0-1.084.281 1.92 1.92 0 0 0-.76.813c-.188.354-.282.778-.282 1.27l-1.115-.655c-.007-.779.167-1.463.521-2.053a3.808 3.808 0 0 1 1.459-1.396 4.194 4.194 0 0 1 2.042-.5c1.244 0 2.195.375 2.855 1.125.667.743 1 1.723 1 2.938v7.47h-2.51zm-13.534 0V19.943h2.219v3.49h.312v7.763h-2.531zm6.782 0v-6.804c0-.785-.19-1.396-.573-1.834-.382-.438-.902-.656-1.562-.656-.64 0-1.153.218-1.543.656-.382.438-.573 1.007-.573 1.709l-1.125-.75c0-.73.18-1.386.542-1.97a3.856 3.856 0 0 1 1.459-1.375c.618-.34 1.309-.51 2.073-.51.84 0 1.542.18 2.105.541.57.355.993.84 1.271 1.459.285.611.427 1.303.427 2.073v7.46h-2.5zm-15.586.323c-.834 0-1.522-.14-2.064-.417-.541-.278-.972-.632-1.291-1.063a4.614 4.614 0 0 1-.709-1.375 7.361 7.361 0 0 1-.302-1.376 11.706 11.706 0 0 1-.063-1.062v-6.283h2.543v5.418c0 .347.024.74.073 1.177.048.43.16.848.333 1.25.18.396.445.723.792.98.354.257.83.386 1.427.386.32 0 .636-.053.949-.157.312-.104.593-.281.843-.531.258-.257.462-.608.615-1.053.153-.444.23-1.007.23-1.688l1.49.636c0 .959-.188 1.827-.563 2.605a4.43 4.43 0 0 1-1.636 1.865c-.723.459-1.612.688-2.667.688zm3.678-.323v-3.49h-.302v-7.763h2.521v11.253h-2.22zm-18.801 0V16.192h2.51V28.84h6.628v2.355h-9.138z"/><defs><clipPath id="a"><path fill="#fff" d="M13.75 7.5h30.466v30H13.75z"/></clipPath></defs></svg>