<svg xmlns="http://www.w3.org/2000/svg" width="26" height="26" fill="none"><path fill="#532753" d="M20.024 18.165A9.208 9.208 0 0 1 8.794 7.672a1.49 1.49 0 0 1-.122.104c-.304.23-.683.316-1.44.488l-.69.156c-2.664.603-3.996.904-4.313 1.923-.317 1.02.591 2.082 2.408 4.206l.47.55c.516.603.774.905.89 1.279.116.373.077.776 0 1.581l-.072.733c-.274 2.834-.412 4.252.418 4.882.83.63 2.077.055 4.572-1.094l.646-.297c.709-.326 1.063-.49 1.44-.49.375 0 .73.164 1.438.49l.646.297c2.495 1.15 3.742 1.724 4.572 1.094.83-.63.692-2.048.418-4.882l-.051-.527z"/><path fill="#532753" d="m9.916 5.86-.355.636c-.39.7-.585 1.05-.889 1.28.043-.032.083-.067.122-.105a9.208 9.208 0 0 0 11.23 10.493l-.02-.205c-.078-.805-.117-1.208-.001-1.581.116-.374.374-.676.89-1.28l.47-.549c1.817-2.124 2.725-3.186 2.408-4.206-.317-1.019-1.65-1.32-4.314-1.923l-.69-.156c-.756-.172-1.135-.257-1.44-.488-.303-.23-.498-.58-.888-1.28l-.355-.637C14.712 3.397 14.026 2.167 13 2.167c-1.026 0-1.712 1.23-3.084 3.692z" opacity=".5"/></svg>