<svg xmlns="http://www.w3.org/2000/svg" width="135" height="45" fill="none"><g fill-rule="evenodd" clip-path="url(#a)" clip-rule="evenodd"><path fill="#916E91" d="M15.036 32.44c-7.333-6.494-6.36-17.037.992-22.26 5.164-3.667 13.028-4.119 18.034 2.132 3.547 4.43 3.79 10.8 1.542 14.646-1.408 2.4-4.643 4.177-6.623 1.806-1.8-2.154.209-4.064.913-6.579 2.516-9.014-9.962-15.4-16.535-6.727-3.354 4.425-3.165 11.247 1.677 16.982z"/><path fill="#745874" d="M38.035 12.774c7.184 6.662 5.969 17.18-1.503 22.23-5.249 3.548-13.117 3.816-17.979-2.544-3.448-4.515-3.542-10.89-1.206-14.68 1.464-2.367 4.738-4.074 6.668-1.653 1.752 2.193-.307 4.059-1.066 6.554-2.72 8.96 9.604 15.633 16.376 7.11 3.453-4.347 3.423-11.178-1.285-17.017h-.005z"/></g><path fill="#745874" d="m117.017 34.125 2.04-5.6.039 1.648-4.619-11.348h2.462l3.276 8.395h-.628l3.187-8.395h2.364l-5.904 15.3h-2.217zm-3.383-4.708a9.643 9.643 0 0 1-2.059.167c-.667-.013-1.265-.134-1.795-.363a2.483 2.483 0 0 1-1.206-1.108 3.158 3.158 0 0 1-.383-1.403 60.189 60.189 0 0 1-.019-1.618v-9.21h2.353v9.073c0 .425.004.798.01 1.118.013.32.082.582.206.785.236.392.612.61 1.128.657.517.045 1.105.02 1.765-.079v1.981zm-7.385-8.738v-1.854h7.385v1.854h-7.385zm-4.124-3.462v-2.168h2.363v2.168h-2.363zm0 12.2V18.825h2.363v10.592h-2.363zm-6.592.295c-1.092 0-2.024-.242-2.795-.726a4.832 4.832 0 0 1-1.776-2.001c-.405-.843-.611-1.798-.618-2.864.007-1.085.22-2.046.638-2.883a4.81 4.81 0 0 1 1.805-1.982c.778-.483 1.703-.725 2.775-.725 1.203 0 2.22.304 3.05.912.837.601 1.383 1.425 1.638 2.471l-2.354.638c-.183-.569-.487-1.01-.912-1.324a2.348 2.348 0 0 0-1.451-.48c-.615 0-1.122.146-1.52.44-.4.288-.694.687-.883 1.197-.19.51-.285 1.089-.285 1.736 0 1.007.226 1.821.677 2.442.451.621 1.121.932 2.01.932.628 0 1.122-.144 1.482-.431.366-.288.64-.703.824-1.246l2.412.54c-.327 1.078-.899 1.909-1.716 2.49-.817.576-1.818.864-3.001.864zm-12.047 0c-1.06 0-1.985-.24-2.776-.716a4.918 4.918 0 0 1-1.843-1.972c-.432-.843-.648-1.81-.648-2.903 0-1.111.223-2.086.667-2.922a4.917 4.917 0 0 1 1.854-1.962c.791-.47 1.706-.706 2.746-.706 1.066 0 1.994.238 2.785.716a4.902 4.902 0 0 1 1.844 1.98c.438.838.657 1.802.657 2.894 0 1.099-.222 2.07-.667 2.913a4.917 4.917 0 0 1-1.844 1.971c-.79.471-1.716.707-2.775.707zm0-2.217c.941 0 1.641-.314 2.099-.942.458-.627.686-1.438.686-2.432 0-1.026-.232-1.844-.696-2.452-.464-.614-1.16-.922-2.089-.922-.634 0-1.157.144-1.57.432-.405.281-.705.677-.902 1.187-.196.503-.294 1.088-.294 1.755 0 1.027.232 1.847.697 2.462.47.608 1.16.912 2.069.912zm-9.98 1.922V15h2.364v14.417h-2.364zm-7.181.295c-1.072 0-2.013-.233-2.824-.697a4.959 4.959 0 0 1-1.903-1.932c-.451-.824-.677-1.772-.677-2.844 0-1.158.223-2.161.667-3.011.445-.857 1.063-1.52 1.854-1.991.791-.47 1.706-.706 2.746-.706 1.099 0 2.03.258 2.795.775.772.51 1.344 1.232 1.717 2.167.372.935.513 2.037.421 3.305h-2.344v-.863c-.006-1.15-.209-1.99-.608-2.52s-1.026-.795-1.883-.795c-.968 0-1.687.301-2.157.902-.471.596-.707 1.468-.707 2.62 0 1.072.236 1.902.707 2.49.47.589 1.157.883 2.06.883.581 0 1.081-.128 1.5-.383.425-.261.752-.637.98-1.127l2.335.706c-.406.954-1.033 1.697-1.883 2.226a5.151 5.151 0 0 1-2.796.794zm-3.648-4.934v-1.785h7.287v1.785h-7.287zm-9.387 4.639-4.453-14.123h2.433l3.727 11.828 3.776-11.828h2.432l-4.453 14.123H53.29z"/><defs><clipPath id="a"><path fill="#fff" d="M10 7.5h32.828v30H10z"/></clipPath></defs></svg>