<svg xmlns="http://www.w3.org/2000/svg" width="135" height="45" fill="none"><g clip-path="url(#a)"><path fill="#916E91" d="M17.5 22.492c0 4.14 1.724 8.13 4.755 10.972.92-1.56 1.219-3.523.677-5.507-.749-2.75-2.91-4.789-5.432-5.465z"/><path fill="#745874" d="M18.273 17.77a14.963 14.963 0 0 0-.714 3.402c3.493.348 6.457 4.372 6.802 9.475a13.6 13.6 0 0 1-.362 4.209 15.018 15.018 0 0 0 2.544 1.404c.48-2.38.462-5.011-.151-7.668-1.199-5.192-4.373-9.174-8.119-10.826v.004zm16.177-2.493c3.793.854 7.51.29 10.389-1.303a14.644 14.644 0 0 0-1.837-2.182c-2.607 2.098-6.987 2.527-11.179.782-2.186-.908-3.99-2.274-5.268-3.842-.399.172-.794.361-1.177.572 1.892 2.833 5.113 5.082 9.073 5.973zm12.886 9.447c.122-.82.177-1.644.164-2.46-3.132.989-6.1 3.288-8.097 6.622-1.517 2.535-2.245 5.28-2.24 7.87.353-.114.697-.24 1.042-.379.311-2.358 1.56-5.057 3.637-7.462 1.669-1.933 3.607-3.363 5.494-4.187v-.004z"/><path fill="#A78BA7" d="M46.037 16.051c-4.23 1.934-10.7 1.745-17.11-.92-2.447-1.018-4.642-2.296-6.512-3.73a14.792 14.792 0 0 0-3.086 3.931c4.843 2.04 8.803 9.53 9.421 18.704a36.37 36.37 0 0 1 .076 3.01c2.064.526 4.162.589 6.175.244.303-4.221 2.468-9.203 6.273-13.604 1.77-2.048 3.712-3.759 5.7-5.1-.235-.87-.546-1.72-.937-2.535zM32.971 27.902c-6.029 0-6.02-9.354 0-9.354s6.02 9.354 0 9.354z"/><path fill="#916E91" d="M35.153 12.419c2.396.441 4.813-.236 6.68-1.657a14.918 14.918 0 0 0-3.578-2.11 14.928 14.928 0 0 0-8.694-.858c.866 2.325 2.893 4.129 5.592 4.625zM46.512 27.84c-2.203.348-4.385 1.82-5.776 4.136a9.174 9.174 0 0 0-1.274 3.809 14.936 14.936 0 0 0 6.886-7.525c.059-.14.11-.282.164-.42z"/></g><path fill="#745874" d="m106.741 30.049 4.128-5.706-4.044-5.58h2.968l2.54 3.605 2.497-3.606h2.968l-4.044 5.58 4.149 5.707h-2.968l-2.602-3.731-2.624 3.73h-2.968zm-5.779.314c-1.143 0-2.146-.248-3.01-.742a5.284 5.284 0 0 1-2.028-2.06c-.48-.877-.72-1.887-.72-3.03 0-1.233.236-2.303.71-3.208.474-.913 1.132-1.62 1.975-2.122.843-.502 1.819-.752 2.926-.752 1.171 0 2.164.275 2.979.825.822.544 1.432 1.314 1.829 2.31s.547 2.17.449 3.522h-2.498v-.92c-.007-1.226-.223-2.121-.648-2.686-.425-.564-1.093-.846-2.006-.846-1.031 0-1.798.32-2.3.961-.5.634-.752 1.564-.752 2.79 0 1.143.251 2.028.753 2.655.501.627 1.233.94 2.194.94.62 0 1.153-.135 1.599-.407.453-.279.802-.68 1.045-1.202l2.488.753c-.432 1.017-1.101 1.808-2.007 2.372a5.488 5.488 0 0 1-2.978.847zm-3.888-5.257v-1.902h7.765v1.902h-7.765zm-3.099 4.943c-.746.14-1.477.199-2.195.178-.71-.014-1.348-.143-1.912-.387a2.65 2.65 0 0 1-1.286-1.18 3.365 3.365 0 0 1-.407-1.495 63.731 63.731 0 0 1-.021-1.725v-9.813h2.508v9.667c0 .453.003.85.01 1.191.014.342.088.62.22.836.25.418.651.652 1.202.7.55.05 1.177.021 1.88-.083v2.111zm-7.87-9.311v-1.976h7.87v1.976h-7.87zm-7.094 9.311V18.762h2.226v2.749l-.271-.355a4.03 4.03 0 0 1 .553-1.025 3.1 3.1 0 0 1 .847-.773c.279-.188.585-.335.92-.439.34-.111.69-.178 1.045-.198.355-.028.7-.015 1.034.041v2.352a3.23 3.23 0 0 0-1.16-.094 2.659 2.659 0 0 0-1.17.365 2.63 2.63 0 0 0-.857.721 3.042 3.042 0 0 0-.48 1.004 4.38 4.38 0 0 0-.158 1.202v5.737h-2.529zm-7.935.314c-1.129 0-2.115-.255-2.958-.763a5.24 5.24 0 0 1-1.964-2.101c-.46-.899-.69-1.93-.69-3.093 0-1.185.237-2.223.71-3.115a5.24 5.24 0 0 1 1.976-2.09c.843-.502 1.818-.752 2.926-.752 1.136 0 2.125.254 2.968.763a5.223 5.223 0 0 1 1.965 2.11c.466.893.7 1.92.7 3.084 0 1.17-.237 2.205-.71 3.104a5.24 5.24 0 0 1-1.966 2.1c-.843.502-1.828.753-2.957.753zm0-2.362c1.003 0 1.749-.335 2.236-1.004.488-.669.732-1.532.732-2.591 0-1.094-.248-1.965-.742-2.613-.495-.655-1.237-.982-2.226-.982-.676 0-1.233.153-1.672.46-.432.299-.753.72-.962 1.264-.209.536-.313 1.16-.313 1.87 0 1.095.247 1.969.742 2.624.501.648 1.237.972 2.205.972zm-13.744 2.048L52.587 15h2.592l3.971 12.604L63.174 15h2.592L61.02 30.049h-3.689z"/><defs><clipPath id="a"><path fill="#fff" d="M17.5 7.5h30v30h-30z"/></clipPath></defs></svg>